<svg xmlns="http://www.w3.org/2000/svg" enable-background="new 0 0 32 32" viewBox="0 0 32 32" id="inbox">
  <path d="M24,26H8c-3.3,0-6-2.7-6-6v-8c0-3.3,2.7-6,6-6h16c3.3,0,6,2.7,6,6v8C30,23.3,27.3,26,24,26z M8,8c-2.2,0-4,1.8-4,4v8
			c0,2.2,1.8,4,4,4h16c2.2,0,4-1.8,4-4v-8c0-2.2-1.8-4-4-4H8z"></path>
  <path d="M16,17c-1.2,0-2.4-0.4-3.4-1.1l-8.7-6C3.4,9.6,3.3,9,3.6,8.5S4.6,7.9,5,8.2l8.7,6c1.4,0.9,3.2,0.9,4.6,0l8.7-6
			c0.5-0.3,1.1-0.2,1.4,0.3c0.3,0.5,0.2,1.1-0.3,1.4l-8.7,6C18.4,16.6,17.2,17,16,17z"></path>
</svg>
